<svg width="94" height="94" viewBox="0 0 94 94" fill="none" xmlns="http://www.w3.org/2000/svg">
<path d="M47 94C72.9574 94 94 72.9574 94 47C94 21.0426 72.9574 0 47 0C21.0426 0 0 21.0426 0 47C0 72.9574 21.0426 94 47 94Z" fill="#396051"/>
<path d="M60.5655 44.42L48.9906 49.1753V60.0682C58.0026 50.9883 70.154 45.7108 82.9412 45.3231C82.6113 38.3603 80.266 31.6432 76.1901 25.9884C72.1143 20.3336 66.4835 15.9845 59.9822 13.4699C53.481 10.9553 46.3892 10.3835 39.569 11.8239C32.7489 13.2642 26.494 16.6548 21.5647 21.5835C15.1806 27.9169 11.4276 36.4302 11.0588 45.4153C23.846 45.8029 35.9974 51.0804 45.0094 60.1604V49.1753L33.4345 44.42C30.7337 43.1405 28.5994 40.9103 27.4399 38.156C26.2803 35.4016 26.1769 32.3164 27.1494 29.4906L28.3659 25.8043L42.0972 31.3337C44.1301 32.2064 45.8429 33.6873 47 35.5729C48.1571 33.6873 49.8698 32.2064 51.9027 31.3337L65.6341 25.8043L66.8506 29.4906C67.8231 32.3164 67.7197 35.4016 66.5601 38.156C65.4005 40.9103 63.2662 43.1405 60.5655 44.42Z" fill="#FF8372"/>
<path d="M79.8631 61.6709C77.7602 66.3401 74.6895 70.5095 70.8543 73.903C67.0192 77.2965 62.507 79.8367 57.6165 81.3556C57.1372 79.7521 56.6027 78.1854 55.9761 76.6556C57.2596 74.7396 58.7223 72.9499 60.3443 71.3105C65.6104 66.034 72.4723 62.6452 79.8631 61.6709V61.6709Z" fill="#BDDD99"/>
<path d="M82.9412 49.4146C82.7603 52.1531 82.2656 54.8618 81.4667 57.4875C76.1038 57.906 70.8909 59.4581 66.1726 62.0413C61.4543 64.6244 57.3381 68.1798 54.0961 72.4722C52.8074 69.9624 51.3026 67.5696 49.5988 65.3208C50.3361 64.473 51.1102 63.6436 51.9028 62.851C60.1622 54.5857 71.2622 49.7806 82.9412 49.4146V49.4146Z" fill="#BDDD99"/>
<path d="M53.7274 82.3145L52.9165 82.462C51.6157 82.669 50.3055 82.8104 48.9906 82.8859H48.4745H47H45.5255L45.0094 81.4851C44.2973 79.7017 43.4596 77.9709 42.5027 76.3059C41.7283 74.9707 40.8727 73.6842 39.9408 72.4538C36.697 68.1647 32.58 64.6129 27.8618 62.033C23.1436 59.4531 17.9316 57.9038 12.5702 57.4875C11.7588 54.8633 11.2517 52.1545 11.0588 49.4146C16.7142 49.6141 22.2831 50.8641 27.4812 53.1008C32.9466 55.4005 37.9112 58.7437 42.0972 62.9432C42.8898 63.7357 43.6639 64.5651 44.4012 65.413L44.9725 66.0765C45.6729 66.9244 46.3365 67.7906 46.9631 68.6569C47.5898 69.5232 48.3455 70.6659 48.9537 71.6981C49.8833 73.2191 50.7204 74.7948 51.4604 76.4165C51.6263 76.7851 51.7921 77.1722 51.9396 77.5408C52.4741 78.8126 52.9533 80.0844 53.3772 81.393C53.451 81.6326 53.6353 81.9828 53.7274 82.3145Z" fill="#BDDD99"/>
<path d="M41.0836 82.4615L40.2726 82.314C38.9591 82.0686 37.6607 81.7486 36.3836 81.3556C31.4931 79.8367 26.9809 77.2965 23.1457 73.903C19.3106 70.5095 16.2399 66.3401 14.1369 61.6709C21.5278 62.6452 28.3896 66.034 33.6558 71.3105C35.2778 72.9499 36.7404 74.7396 38.024 76.6556C38.9832 78.137 39.8273 79.6898 40.5491 81.3003C40.758 81.6935 40.9361 82.0806 41.0836 82.4615Z" fill="#BDDD99"/>
<path d="M44.6776 44.733L35.0196 40.7334C33.3031 39.8751 31.9485 38.4335 31.1986 36.667C30.4488 34.9005 30.3528 32.9246 30.9278 31.0938L40.549 35.1118C42.2759 35.9546 43.6427 37.3896 44.4005 39.1555C45.1583 40.9213 45.2566 42.9007 44.6776 44.733V44.733Z" fill="#BDDD99"/>
<path d="M58.9803 40.7334L49.2486 44.733C48.675 42.892 48.7841 40.9059 49.5559 39.1389C50.3278 37.3718 51.7106 35.9421 53.4509 35.1118L63.1827 31.0938C63.7455 32.9377 63.6314 34.922 62.861 36.6893C62.0905 38.4566 60.7144 39.8907 58.9803 40.7334V40.7334Z" fill="#BDDD99"/>
</svg>
