<svg width="51" height="51" viewBox="0 0 51 51" fill="none" xmlns="http://www.w3.org/2000/svg">
<path d="M25.5 51C39.5833 51 51 39.5833 51 25.5C51 11.4167 39.5833 0 25.5 0C11.4167 0 0 11.4167 0 25.5C0 39.5833 11.4167 51 25.5 51Z" fill="#396051"/>
<path d="M32.86 24.1L26.58 26.68V32.59C31.4695 27.6637 38.0623 24.8003 45 24.59C44.8211 20.8123 43.5486 17.1679 41.3372 14.0999C39.1258 11.0319 36.0708 8.67227 32.5436 7.30797C29.0163 5.94366 25.1686 5.6334 21.4683 6.41488C17.768 7.19637 14.3744 9.03595 11.7 11.71C8.23628 15.1462 6.20011 19.7651 6 24.64C12.9377 24.8503 19.5305 27.7137 24.42 32.64V26.68L18.14 24.1C16.6747 23.4058 15.5167 22.1958 14.8876 20.7014C14.2585 19.2071 14.2024 17.5332 14.73 16L15.39 14L22.84 17C23.943 17.4735 24.8722 18.277 25.5 19.3C26.1278 18.277 27.057 17.4735 28.16 17L35.61 14L36.27 16C36.7976 17.5332 36.7415 19.2071 36.1124 20.7014C35.4833 22.1958 34.3253 23.4058 32.86 24.1Z" fill="#FF8372"/>
<path d="M43.33 33.46C42.189 35.9933 40.523 38.2554 38.4422 40.0966C36.3615 41.9377 33.9134 43.3159 31.26 44.14C31 43.27 30.71 42.42 30.37 41.59C31.0664 40.5505 31.86 39.5795 32.74 38.69C35.5971 35.8272 39.3201 33.9886 43.33 33.46V33.46Z" fill="#BDDD99"/>
<path d="M45 26.81C44.9019 28.2958 44.6335 29.7654 44.2 31.19C41.2904 31.4171 38.4621 32.2592 35.9022 33.6607C33.3422 35.0622 31.1089 36.9911 29.35 39.32C28.6508 37.9583 27.8344 36.6601 26.91 35.44C27.31 34.98 27.73 34.53 28.16 34.1C32.6412 29.6156 38.6635 27.0086 45 26.81V26.81Z" fill="#BDDD99"/>
<path d="M29.15 44.66L28.71 44.74C28.0043 44.8523 27.2934 44.929 26.58 44.97H26.3H25.5H24.7L24.42 44.21C24.0336 43.2424 23.5792 42.3034 23.06 41.4C22.6398 40.6756 22.1756 39.9776 21.67 39.31C19.9101 36.983 17.6764 35.0559 15.1165 33.6562C12.5566 32.2564 9.72883 31.4158 6.82 31.19C6.37977 29.7662 6.10463 28.2966 6 26.81C9.06834 26.9182 12.0898 27.5965 14.91 28.81C17.8753 30.0577 20.5688 31.8715 22.84 34.15C23.27 34.58 23.69 35.03 24.09 35.49L24.4 35.85C24.78 36.31 25.14 36.78 25.48 37.25C25.82 37.72 26.23 38.34 26.56 38.9C27.0644 39.7252 27.5185 40.5801 27.92 41.46C28.01 41.66 28.1 41.87 28.18 42.07C28.47 42.76 28.73 43.45 28.96 44.16C29 44.29 29.1 44.48 29.15 44.66Z" fill="#BDDD99"/>
<path d="M22.29 44.74L21.85 44.66C21.1374 44.5269 20.4329 44.3532 19.74 44.14C17.0866 43.3159 14.6386 41.9377 12.5578 40.0966C10.477 38.2554 8.81099 35.9933 7.67001 33.46C11.6799 33.9886 15.4029 35.8272 18.26 38.69C19.14 39.5795 19.9336 40.5505 20.63 41.59C21.1504 42.3938 21.6084 43.2362 22 44.11C22.1133 44.3234 22.21 44.5334 22.29 44.74Z" fill="#BDDD99"/>
<path d="M24.24 24.27L19 22.1C18.0687 21.6344 17.3338 20.8522 16.927 19.8938C16.5201 18.9354 16.468 17.8634 16.78 16.87L22 19.05C22.937 19.5073 23.6785 20.2858 24.0897 21.2439C24.5008 22.202 24.5541 23.2759 24.24 24.27V24.27Z" fill="#BDDD99"/>
<path d="M32 22.1L26.72 24.27C26.4088 23.2712 26.468 22.1936 26.8868 21.2349C27.3055 20.2762 28.0558 19.5005 29 19.05L34.28 16.87C34.5854 17.8704 34.5235 18.947 34.1054 19.9059C33.6874 20.8647 32.9408 21.6428 32 22.1V22.1Z" fill="#BDDD99"/>
</svg>
