<svg width="32" height="32" viewBox="0 0 32 32" fill="none" xmlns="http://www.w3.org/2000/svg">
<path fill-rule="evenodd" clip-rule="evenodd" d="M15.6514 2.66675C22.8113 2.66675 28.6354 8.49075 28.6354 15.6507C28.6354 19.0288 27.339 22.1098 25.2175 24.4221L29.3919 28.5877C29.7826 28.9783 29.7839 29.6103 29.3932 30.001C29.1986 30.1983 28.9412 30.2957 28.6852 30.2957C28.4305 30.2957 28.1745 30.1983 27.9785 30.0037L23.7538 25.7908C21.5314 27.5705 18.7136 28.6361 15.6514 28.6361C8.49135 28.6361 2.66602 22.8107 2.66602 15.6507C2.66602 8.49075 8.49135 2.66675 15.6514 2.66675ZM15.6514 4.66675C9.59402 4.66675 4.66602 9.59341 4.66602 15.6507C4.66602 21.7081 9.59402 26.6361 15.6514 26.6361C21.7073 26.6361 26.6354 21.7081 26.6354 15.6507C26.6354 9.59341 21.7073 4.66675 15.6514 4.66675Z" fill="black"/>
</svg>
